 <svg  version="1.0" xmlns="http://www.w3.org/2000/svg"  width="300.000000pt" height="300.000000pt" viewBox="0 0 300.000000 300.000000"  preserveAspectRatio="xMidYMid meet">  <g transform="translate(0.000000,300.000000) scale(0.100000,-0.100000)" fill="#ffffff" stroke="none"> <path d="M2225 2491 l-150 -4 -155 -161 c-85 -89 -157 -162 -160 -164 -3 -1 -40 66 -81 150 l-75 153 -167 3 c-111 2 -167 -1 -167 -8 0 -6 -11 -27 -24 -48 -13 -20 -259 -431 -546 -912 -287 -481 -553 -926 -591 -989 -54 -89 -67 -117 -58 -127 9 -11 59 -14 235 -14 123 0 224 3 224 8 1 15 1182 1197 1186 1187 17 -41 266 -429 274 -428 5 2 10 -2 10 -7 0 -16 360 -13 360 3 1 12 11 24 319 347 342 357 312 322 293 346 -9 11 -96 165 -192 342 -96 176 -178 318 -182 316 -4 -3 -8 0 -8 5 0 11 -30 11 -345 2z m-722 -1053 l-1023 -1023 -188 -3 -187 -2 104 107 c252 260 803 826 1001 1028 118 121 289 297 380 390 91 94 244 250 340 348 l174 177 211 0 210 0 -1022 -1022z m1100 945 c20 -38 98 -183 175 -323 l139 -255 -80 -85 c-44 -47 -83 -86 -86 -88 -4 -1 -38 57 -75 130 -38 73 -100 189 -138 258 -38 69 -85 156 -105 193 l-36 68 84 85 c46 46 84 84 85 84 1 0 18 -30 37 -67z m-1033 52 c0 -3 -11 -22 -24 -43 -13 -20 -160 -273 -326 -562 -167 -289 -308 -533 -314 -542 -7 -9 -158 -166 -337 -350 -179 -183 -345 -354 -369 -381 -23 -26 -45 -45 -47 -43 -3 3 8 24 25 48 32 48 1082 1799 1107 1847 l16 31 134 0 c74 0 135 -2 135 -5z m63 -407 l-98 -98 -47 96 c-27 53 -48 100 -48 105 0 4 15 34 34 66 18 32 52 91 76 132 l43 75 69 -139 70 -138 -99 -99z m840 36 l99 -186 -89 -91 c-48 -51 -140 -146 -204 -213 l-116 -120 -33 64 c-19 36 -65 123 -103 194 l-70 130 204 204 c112 112 206 204 209 204 3 0 49 -84 103 -186z m-1009 -71 l44 -89 -247 -256 c-135 -140 -247 -254 -249 -252 -2 1 23 47 55 101 33 54 124 210 202 346 79 136 145 246 147 244 2 -2 24 -44 48 -94z m1191 -266 c33 -61 60 -117 60 -123 0 -10 -397 -436 -401 -431 -1 1 -31 57 -67 125 l-66 123 142 147 c79 81 169 175 201 210 33 34 62 62 65 62 3 0 33 -51 66 -113z m-610 -125 c61 -114 138 -260 172 -324 l63 -118 -148 0 -147 1 -130 211 c-71 116 -132 215 -134 220 -3 9 197 218 209 218 3 0 55 -94 115 -208z"/> <path d="M2130 2285 c-75 -75 -92 -97 -82 -107 10 -10 32 7 108 83 77 77 93 98 82 107 -11 9 -33 -8 -108 -83z"/> <path d="M1886 2140 c-48 -54 -52 -75 -25 -162 13 -40 24 -75 26 -77 2 -2 12 4 23 14 14 13 19 27 16 44 -4 20 2 31 25 50 25 20 32 22 40 10 7 -12 12 -10 29 7 l21 21 -32 66 c-29 58 -37 67 -60 67 -18 0 -38 -12 -63 -40z m54 -95 c-30 -32 -37 -32 -45 6 -6 24 -2 36 16 55 l24 25 14 -30 c14 -29 13 -33 -9 -56z"/> <path d="M1709 1963 l-59 -58 35 -73 c19 -40 35 -77 35 -82 0 -20 19 -8 68 44 28 30 54 66 58 81 11 46 -31 145 -62 145 -9 0 -43 -26 -75 -57z m76 -33 c20 -40 19 -60 -7 -87 l-22 -24 -22 43 -22 43 26 28 c14 15 27 27 29 27 1 0 9 -13 18 -30z"/> <path d="M1603 1858 l-22 -21 25 -49 c13 -26 21 -48 16 -48 -5 0 -30 7 -56 16 -46 16 -49 16 -68 -4 l-21 -21 38 -80 c21 -45 42 -81 45 -81 4 0 15 9 24 19 16 18 16 22 -8 69 l-25 50 46 -14 c65 -20 82 -18 93 11 7 20 2 39 -26 100 -20 41 -37 75 -38 75 -1 0 -11 -10 -23 -22z"/> <path d="M1388 1643 l-66 -68 34 -67 c23 -45 40 -68 52 -68 17 0 122 93 122 107 0 5 -4 14 -9 21 -6 11 -18 4 -48 -29 -26 -27 -44 -39 -52 -34 -9 5 -1 20 29 50 30 31 41 49 36 61 -6 15 -12 12 -44 -19 -21 -20 -41 -37 -45 -37 -18 0 -3 28 35 67 34 35 40 46 32 63 -8 19 -14 15 -76 -47z"/> <path d="M1218 1473 l-56 -58 41 -83 40 -83 23 22 23 22 -20 38 c-21 43 -14 48 33 23 30 -16 31 -15 61 14 l30 31 -36 6 c-37 7 -46 18 -27 30 13 8 13 38 -2 70 -18 40 -47 31 -110 -32z m72 -32 c0 -10 -11 -28 -24 -40 l-24 -23 -7 22 c-5 15 0 29 16 46 24 25 39 23 39 -5z"/> <path d="M1071 1325 c-53 -48 -59 -80 -30 -169 13 -39 25 -73 26 -75 2 -2 12 4 24 14 14 13 18 26 14 42 -4 18 2 30 22 48 33 29 43 31 43 8 0 -15 4 -13 25 7 l25 25 -32 65 c-41 80 -60 86 -117 35z m61 -50 c10 -22 8 -29 -12 -50 -30 -32 -37 -31 -45 6 -5 22 -2 36 11 50 23 25 32 24 46 -6z"/> <path d="M780 952 c-68 -70 -192 -196 -274 -279 -119 -121 -148 -155 -138 -165 14 -14 79 48 383 363 141 147 176 189 166 198 -10 8 -41 -18 -137 -117z"/> <path d="M2506 2271 c-10 -16 214 -380 230 -374 8 3 14 9 14 13 0 15 -217 364 -228 368 -5 1 -13 -1 -16 -7z"/> <path d="M1050 1842 c-151 -257 -305 -518 -342 -581 -51 -85 -65 -117 -56 -123 20 -12 21 -11 47 35 41 71 581 988 622 1054 34 56 36 64 21 72 -15 8 -56 -58 -292 -457z"/> <path d="M1522 2231 c-11 -6 -6 -24 23 -82 44 -88 40 -83 59 -76 13 5 9 20 -22 86 -20 44 -39 80 -42 80 -3 1 -11 -3 -18 -8z"/> <path d="M2433 1522 c-137 -149 -159 -179 -147 -189 13 -9 22 -4 52 30 30 34 222 244 270 295 10 11 10 17 1 28 -6 8 -12 14 -13 14 0 0 -74 -80 -163 -178z"/> <path d="M1851 1641 c-11 -7 10 -48 94 -187 60 -99 112 -183 116 -188 4 -4 14 -4 22 0 12 7 -6 43 -95 189 -60 99 -112 183 -116 187 -4 4 -13 3 -21 -1z"/> </g> </svg> 